<svg width="52" height="49" viewBox="0 0 52 49" fill="none" xmlns="http://www.w3.org/2000/svg">
<path d="M34.6235 24.4748C34.6235 29.4202 30.6145 33.4291 25.6692 33.4291C20.7238 33.4291 16.7148 29.4202 16.7148 24.4748C16.7148 19.5295 20.7238 15.5205 25.6692 15.5205C30.6145 15.5205 34.6235 19.5295 34.6235 24.4748Z" fill="#1F8B75"/>
<path d="M25.6729 9.85742C33.7458 9.85763 40.29 16.4025 40.29 24.4756C40.2898 32.5485 33.7457 39.0926 25.6729 39.0928C17.5998 39.0928 11.0549 32.5486 11.0547 24.4756C11.0547 16.4024 17.5997 9.85742 25.6729 9.85742Z" stroke="#1F8B75" stroke-width="3"/>
<path d="M15.5242 14.327L9.55469 8.35742" stroke="#1F8B75" stroke-width="3"/>
<path d="M25.6719 10.7444V5.96875" stroke="#1F8B75" stroke-width="3"/>
<path d="M35.8203 14.327L41.7899 8.35742" stroke="#1F8B75" stroke-width="3"/>
<path d="M15.5242 34.6242L9.55469 40.5938" stroke="#1F8B75" stroke-width="3"/>
<path d="M25.6719 38.2058V42.9814" stroke="#1F8B75" stroke-width="3"/>
<path d="M35.8203 34.6242L41.7899 40.5938" stroke="#1F8B75" stroke-width="3"/>
<path d="M11.3452 24.4746H5.97266" stroke="#1F8B75" stroke-width="3"/>
<path d="M39.9961 24.4746H45.3687" stroke="#1F8B75" stroke-width="3"/>
<ellipse cx="25.6709" cy="45.3688" rx="4.17868" ry="3.58173" fill="#1F8B75"/>
<ellipse cx="25.6709" cy="3.58173" rx="4.17868" ry="3.58173" fill="#1F8B75"/>
<ellipse cx="43.6945" cy="42.4988" rx="4.17868" ry="3.58173" transform="rotate(-45 43.6945 42.4988)" fill="#1F8B75"/>
<ellipse cx="7.87914" cy="42.4982" rx="4.17868" ry="3.58173" transform="rotate(45 7.87914 42.4982)" fill="#1F8B75"/>
<ellipse cx="7.86638" cy="6.52531" rx="4.17868" ry="3.58173" transform="rotate(145 7.86638 6.52531)" fill="#1F8B75"/>
<ellipse cx="43.6861" cy="6.52469" rx="4.17868" ry="3.58173" transform="rotate(-145 43.6861 6.52469)" fill="#1F8B75"/>
<ellipse cx="47.7575" cy="24.4756" rx="4.17868" ry="3.58173" transform="rotate(-90 47.7575 24.4756)" fill="#1F8B75"/>
<path d="M3.58173 20.2959C5.55986 20.2959 7.16346 22.1668 7.16346 24.4746C7.16346 26.7824 5.55986 28.6533 3.58173 28.6533C1.60359 28.6533 0 26.7824 0 24.4746C0 22.1668 1.60359 20.2959 3.58173 20.2959Z" fill="#1F8B75"/>
</svg>
